
<svg xmlns="http://www.w3.org/2000/svg" version="1.1" xmlns:xlink="http://www.w3.org/1999/xlink" preserveAspectRatio="none" x="0px" y="0px" width="37px" height="37px" viewBox="0 0 37 37">
<defs>
<filter id="Filter_1" x="-20%" y="-20%" width="140%" height="140%" color-interpolation-filters="sRGB">
<feColorMatrix in="SourceGraphic" type="matrix" values="0 0 0 0 1 0 0 0 0 1 0 0 0 0 1 0 0 0 1 0" result="result1"/>
</filter>

<g id="Formas_shape_25012_0_Layer0_0_FILL">
<path fill="#000000" stroke="none" d="
M 10 -5
Q 10 -10 5 -10
L -5 -10
Q -10 -10 -10 -5
L -10 5
Q -10 10 -5 10
L 5 10
Q 10 10 10 5
L 10 -5 Z"/>
</g>

<g id="Formas_shape_37_0_Layer0_0_FILL">
<path fill="#000000" stroke="none" d="
M 5.25 -2
L 3.25 -2 -0.75 -6 -0.75 6 3.25 2.05 5.25 2.05 5.25 -2 Z"/>
</g>

<path id="Formas_shape_39_0_Layer0_0_1_STROKES" stroke="#000000" stroke-width="2" stroke-linejoin="round" stroke-linecap="butt" fill="none" d="
M -1.15 -6.05
L -2.65 -4.9
Q -4.65 -2.85 -4.65 0 -4.65 2.9 -2.65 4.9
L -1.15 6.05
M 0.4 -3.4
L -0.45 -2.75
Q -1.6 -1.55 -1.6 0.1 -1.6 1.7 -0.45 2.85
L 0.35 3.5"/>
</defs>

<g transform="matrix( -1.75, 0, 0, 1.75, 18.5,18.5) ">
<g transform="matrix( 1, 0, 0, 1, 0,0) ">
<use xlink:href="#Formas_shape_25012_0_Layer0_0_FILL"/>
</g>
</g>

<g transform="matrix( -1.75, 0, 0, 1.75, 15.55,18.15) ">
<g transform="matrix( 1, 0, 0, 1, 0,0) ">
<use filter="url(#Filter_1)" xlink:href="#Formas_shape_37_0_Layer0_0_FILL"/>
</g>
</g>

<g transform="matrix( -1.75, 0, 0, 1.75, 21.5,18.15) ">
<g transform="matrix( 1, 0, 0, 1, 0,0) ">
<use filter="url(#Filter_1)" xlink:href="#Formas_shape_39_0_Layer0_0_1_STROKES"/>
</g>
</g>
</svg>
