
<svg xmlns="http://www.w3.org/2000/svg" version="1.1" xmlns:xlink="http://www.w3.org/1999/xlink" preserveAspectRatio="none" x="0px" y="0px" width="37px" height="37px" viewBox="0 0 37 37">
<defs>
<filter id="Filter_1" x="-20%" y="-20%" width="140%" height="140%" color-interpolation-filters="sRGB">
<feColorMatrix in="SourceGraphic" type="matrix" values="0 0 0 0 1 0 0 0 0 1 0 0 0 0 1 0 0 0 1 0" result="result1"/>
</filter>

<g id="Formas_shape_25012_0_Layer0_0_FILL">
<path fill="#000000" stroke="none" d="
M 10 -5
Q 10 -10 5 -10
L -5 -10
Q -10 -10 -10 -5
L -10 5
Q -10 10 -5 10
L 5 10
Q 10 10 10 5
L 10 -5 Z"/>
</g>

<g id="Formas_shape_25014_0_Layer0_0_FILL">
<path fill="#000000" stroke="none" d="
M 6.55 0.05
L 6.6 0 -3.6 -5.85 -3.6 5.9 6.55 0.05 Z"/>
</g>
</defs>

<g transform="matrix( 1.75, 0, 0, 1.75, 18.5,18.5) ">
<g transform="matrix( 1, 0, 0, 1, 0,0) ">
<use filter="url(#Filter_1)" xlink:href="#Formas_shape_25012_0_Layer0_0_FILL"/>
</g>
</g>

<g transform="matrix( 1.75, 0, 0, 1.75, 16.95,18.5) ">
<g transform="matrix( 1, 0, 0, 1, 0,0) ">
<use xlink:href="#Formas_shape_25014_0_Layer0_0_FILL"/>
</g>
</g>
</svg>
